<svg xmlns="http://www.w3.org/2000/svg" viewBox="0 0 261.83 51.3"><defs><style>.cls-1{fill:#fff;}</style></defs><g id="Layer_2" data-name="Layer 2"><g id="Layer_1-2" data-name="Layer 1"><path class="cls-1" d="M64.29,47.65a1.25,1.25,0,0,1-.4-1V11.27a1.27,1.27,0,0,1,.4-1,1.41,1.41,0,0,1,1-.37h7.24a1.4,1.4,0,0,1,1,.37,1.28,1.28,0,0,1,.41,1v12a10.46,10.46,0,0,1,8.42-3.65A11.05,11.05,0,0,1,87.88,21a9.66,9.66,0,0,1,3.86,4.13,14.42,14.42,0,0,1,1.39,6.6v15a1.25,1.25,0,0,1-.4,1,1.41,1.41,0,0,1-1,.38h-7.3a1.38,1.38,0,0,1-1.34-1.35V32a5.3,5.3,0,0,0-1.18-3.68,4.29,4.29,0,0,0-3.38-1.31,4.39,4.39,0,0,0-3.38,1.31A5.18,5.18,0,0,0,73.93,32V46.68a1.26,1.26,0,0,1-.41,1,1.41,1.41,0,0,1-1,.38H65.29A1.41,1.41,0,0,1,64.29,47.65Z"/><path class="cls-1" d="M98,45.42q-3.63-3.14-3.94-8.93C94,36,94,35.22,94,34.07s0-2,.06-2.41a12,12,0,0,1,4-8.88q3.72-3.2,10.27-3.19t10.28,3.19a12.06,12.06,0,0,1,4,8.88c.07.93.11,1.74.11,2.41s0,1.49-.11,2.42q-.33,5.79-4,8.93t-10.38,3.14C103.87,48.56,100.4,47.52,98,45.42Zm13.66-5a7.54,7.54,0,0,0,1.23-4.21c0-.36.05-1.07.05-2.15s0-1.78-.05-2.14a7.63,7.63,0,0,0-1.23-4.19,4.55,4.55,0,0,0-6.55,0,7.47,7.47,0,0,0-1.23,4.19l-.06,2.14.06,2.15a7.39,7.39,0,0,0,1.23,4.21,4.6,4.6,0,0,0,6.55,0Z"/><path class="cls-1" d="M125.35,47.65a1.29,1.29,0,0,1-.4-1V11.27a1.3,1.3,0,0,1,.4-1,1.41,1.41,0,0,1,1-.37h6.7a1.3,1.3,0,0,1,1,.37,1.33,1.33,0,0,1,.38,1V46.68a1.34,1.34,0,0,1-.38.94,1.26,1.26,0,0,1-1,.41h-6.7A1.41,1.41,0,0,1,125.35,47.65Z"/><path class="cls-1" d="M137.94,15.86a1.41,1.41,0,0,1-.38-1v-5a1.38,1.38,0,0,1,.4-1,1.3,1.3,0,0,1,.94-.4h6.71A1.38,1.38,0,0,1,147,9.87v5a1.36,1.36,0,0,1-.41,1,1.34,1.34,0,0,1-1,.4H138.9A1.25,1.25,0,0,1,137.94,15.86Zm0,31.76a1.32,1.32,0,0,1-.4-.94V21.46a1.28,1.28,0,0,1,.4-1,1.36,1.36,0,0,1,.94-.38h6.71a1.41,1.41,0,0,1,1,.38,1.25,1.25,0,0,1,.41,1V46.68a1.26,1.26,0,0,1-.41,1,1.41,1.41,0,0,1-1,.38H138.9A1.31,1.31,0,0,1,138,47.62Z"/><path class="cls-1" d="M151.38,45.29q-3-3.27-3.19-9.34l-.06-1.88.06-1.93q.21-5.85,3.21-9.2a10.44,10.44,0,0,1,8.16-3.35,10.21,10.21,0,0,1,7.78,3.11V11.27a1.3,1.3,0,0,1,.4-1,1.33,1.33,0,0,1,.94-.37h6.92a1.41,1.41,0,0,1,1,.37,1.27,1.27,0,0,1,.4,1V46.68a1.25,1.25,0,0,1-.4,1,1.41,1.41,0,0,1-1,.38h-6.38a1.38,1.38,0,0,1-1.34-1.35V45c-1.93,2.36-4.71,3.54-8.32,3.54A10.5,10.5,0,0,1,151.38,45.29Zm14.73-5.66a6.52,6.52,0,0,0,1.23-3.73c.07-1,.11-1.68.11-2s0-1.06-.11-2a5.67,5.67,0,0,0-1.26-3.46,4.2,4.2,0,0,0-3.41-1.36,4,4,0,0,0-3.46,1.42A7.36,7.36,0,0,0,158,32.41L158,34.07l.05,1.67a7.36,7.36,0,0,0,1.21,3.94,4,4,0,0,0,3.46,1.42A4.06,4.06,0,0,0,166.11,39.63Z"/><path class="cls-1" d="M183.41,47.46a8.83,8.83,0,0,1-3.65-3,7.35,7.35,0,0,1-1.31-4.24,7.09,7.09,0,0,1,3-5.93,18.82,18.82,0,0,1,8.34-3.14l6.66-1v-.64a4.31,4.31,0,0,0-.81-2.9,3.5,3.5,0,0,0-2.74-.91,3.85,3.85,0,0,0-1.79.38,9.42,9.42,0,0,0-1.64,1.12,6.35,6.35,0,0,1-1.23.86.65.65,0,0,1-.54.38h-6.22a1.21,1.21,0,0,1-.89-.35,1,1,0,0,1-.29-.83A5.83,5.83,0,0,1,181.77,24,11,11,0,0,1,186,20.87a17.18,17.18,0,0,1,7-1.28q6.66,0,9.88,2.92a10.18,10.18,0,0,1,3.21,7.92V46.68a1.33,1.33,0,0,1-.37.94,1.26,1.26,0,0,1-1,.41h-6.6a1.38,1.38,0,0,1-1.34-1.35V44.81a8.82,8.82,0,0,1-3.27,2.71,11.17,11.17,0,0,1-5,1A12.05,12.05,0,0,1,183.41,47.46Zm11.7-6.79a6.3,6.3,0,0,0,1.47-4.5v-.65l-4.45.75c-3,.58-4.51,1.65-4.51,3.22a2.33,2.33,0,0,0,1,2,4.34,4.34,0,0,0,2.6.75A5.06,5.06,0,0,0,195.11,40.67Z"/><path class="cls-1" d="M208.41,47.62a1.32,1.32,0,0,1-.4-.94V42.23a2.47,2.47,0,0,1,.81-1.77l12.39-13.15H209.78A1.37,1.37,0,0,1,208.44,26V21.46a1.25,1.25,0,0,1,.4-1,1.34,1.34,0,0,1,.94-.38h21.84a1.33,1.33,0,0,1,1,.38,1.3,1.3,0,0,1,.37,1v4.83a2.24,2.24,0,0,1-.75,1.61l-12,12.93h12.56a1.3,1.3,0,0,1,1.34,1.35v4.5a1.34,1.34,0,0,1-.38.94,1.25,1.25,0,0,1-1,.41h-23.4A1.29,1.29,0,0,1,208.41,47.62Z"/><path class="cls-1" d="M237.42,45.05q-3.76-3.52-3.87-10.22V33.16q.22-6.37,4-10t10.15-3.59a15.27,15.27,0,0,1,7.8,1.85,11.71,11.71,0,0,1,4.78,5.1,16.66,16.66,0,0,1,1.58,7.37v1.34a1.37,1.37,0,0,1-1.39,1.4h-17V37a6.72,6.72,0,0,0,1.12,3.89,3.56,3.56,0,0,0,3.06,1.48,3.73,3.73,0,0,0,2.07-.51,6.92,6.92,0,0,0,1.47-1.32,2.88,2.88,0,0,1,.78-.67,2.44,2.44,0,0,1,.94-.13h7a1.27,1.27,0,0,1,.83.29.93.93,0,0,1,.35.73A5.48,5.48,0,0,1,259.5,44a12.61,12.61,0,0,1-4.62,3.22,17.66,17.66,0,0,1-7.16,1.34Q241.17,48.56,237.42,45.05ZM252,31.18v-.11a6.3,6.3,0,0,0-1.13-4,3.8,3.8,0,0,0-3.16-1.42,3.72,3.72,0,0,0-3.14,1.42,6.37,6.37,0,0,0-1.1,4v.11Z"/><path class="cls-1" d="M49.75,22.9,29.38,1.61A5.1,5.1,0,0,0,25.65,0h0a5.09,5.09,0,0,0-3.72,1.61L1.56,22.9a5.83,5.83,0,0,0-1,6.47,5.21,5.21,0,0,0,4.72,3.06h.81V45.74a5.44,5.44,0,0,0,5.28,5.56H39.94a5.44,5.44,0,0,0,5.28-5.56V32.43H46a5.21,5.21,0,0,0,4.72-3.06A5.83,5.83,0,0,0,49.75,22.9ZM12.22,45.52V32.42H39.09v13.1ZM25.65,26.64H6.24L25.65,6.35,45.07,26.64Z"/></g></g></svg>